<svg width="24" height="24" viewBox="0 0 24 24" fill="none" xmlns="http://www.w3.org/2000/svg">
<g clip-path="url(#clip0_586_363)">
<path d="M3.05569 13H5.07069C5.31298 14.6648 6.14656 16.1867 7.41892 17.2872C8.69128 18.3878 10.3174 18.9935 11.9997 18.9935C13.682 18.9935 15.3081 18.3878 16.5805 17.2872C17.8528 16.1867 18.6864 14.6648 18.9287 13H20.9447C20.6981 15.1998 19.6496 17.2317 17.9995 18.7072C16.3493 20.1828 14.2133 20.9985 11.9997 20.9985C9.78606 20.9985 7.65005 20.1828 5.99991 18.7072C4.34977 17.2317 3.30123 15.1998 3.05469 13H3.05569ZM3.05569 11C3.30223 8.80012 4.35077 6.76825 6.00091 5.29272C7.65105 3.81718 9.78706 3.00146 12.0007 3.00146C14.2143 3.00146 16.3503 3.81718 18.0005 5.29272C19.6506 6.76825 20.6991 8.80012 20.9457 11H18.9307C18.6884 9.3352 17.8548 7.8133 16.5825 6.71271C15.3101 5.61212 13.684 5.00643 12.0017 5.00643C10.3194 5.00643 8.69328 5.61212 7.42092 6.71271C6.14856 7.8133 5.31498 9.3352 5.07269 11H3.05569Z" fill="white"/>
</g>
<defs>
<clipPath id="clip0_586_363">
<rect width="24" height="24" fill="white"/>
</clipPath>
</defs>
</svg>
