<svg width="256" height="256" viewBox="0 0 256 256" fill="none" xmlns="http://www.w3.org/2000/svg">
<g clip-path="url(#clip0_165_19)">
<path d="M128 156C143.464 156 156 143.464 156 128C156 112.536 143.464 100 128 100C112.536 100 100 112.536 100 128C100 143.464 112.536 156 128 156Z" stroke="white" stroke-width="8" stroke-linecap="round" stroke-linejoin="round"/>
<path d="M115 103.2C107.7 87.8 100 68.6 100 56C100 48.5739 102.95 41.452 108.201 36.201C113.452 30.95 120.574 28 128 28C135.426 28 142.548 30.95 147.799 36.201C153.05 41.452 156 48.5739 156 56C156 68.6 148.3 87.8 141 103.2" stroke="white" stroke-width="8" stroke-linecap="round" stroke-linejoin="round"/>
<path d="M100 126.8C83 125.5 62.5 122.5 51.6 116.2C45.6083 112.28 41.3461 106.213 39.6895 99.2476C38.0329 92.2817 39.1078 84.9459 42.6933 78.7482C46.2787 72.5505 52.1023 67.9618 58.9667 65.9255C65.8312 63.8892 73.2149 64.56 79.6 67.8C90.5 74 103.3 90.3 113 104.4" stroke="white" stroke-width="8" stroke-linecap="round" stroke-linejoin="round"/>
<path d="M113 151.6C103.3 165.7 90.5 182 79.6 188.2C76.4148 190.284 72.8381 191.697 69.0885 192.352C65.3389 193.007 61.4951 192.89 57.792 192.009C54.0889 191.129 50.6042 189.502 47.5509 187.23C44.4976 184.957 41.9398 182.085 40.0338 178.79C38.1277 175.496 36.9134 171.847 36.4651 168.067C36.0168 164.287 36.3439 160.455 37.4265 156.806C38.509 153.157 40.3242 149.767 42.7611 146.843C45.1981 143.919 48.2056 141.522 51.6 139.8C62.5 133.5 83 130.5 100 129.2" stroke="white" stroke-width="8" stroke-linecap="round" stroke-linejoin="round"/>
<path d="M141 152.8C148.3 168.2 156 187.4 156 200C156 207.426 153.05 214.548 147.799 219.799C142.548 225.05 135.426 228 128 228C120.574 228 113.452 225.05 108.201 219.799C102.95 214.548 100 207.426 100 200C100 187.4 107.7 168.2 115 152.8" stroke="white" stroke-width="8" stroke-linecap="round" stroke-linejoin="round"/>
<path d="M156 129.2C173 130.5 193.5 133.5 204.4 139.8C210.392 143.72 214.654 149.787 216.311 156.752C217.967 163.718 216.892 171.054 213.307 177.252C209.721 183.45 203.898 188.038 197.033 190.074C190.169 192.111 182.785 191.44 176.4 188.2C165.5 182 152.7 165.7 143 151.6" stroke="white" stroke-width="8" stroke-linecap="round" stroke-linejoin="round"/>
<path d="M143 104.4C152.7 90.3 165.5 74 176.4 67.8C182.785 64.56 190.169 63.8892 197.033 65.9255C203.898 67.9618 209.721 72.5505 213.307 78.7482C216.892 84.9459 217.967 92.2817 216.311 99.2476C214.654 106.213 210.392 112.28 204.4 116.2C193.5 122.5 173 125.5 156 126.8" stroke="white" stroke-width="8" stroke-linecap="round" stroke-linejoin="round"/>
</g>
<defs>
<clipPath id="clip0_165_19">
<rect width="256" height="256" fill="white"/>
</clipPath>
</defs>
</svg>
