<svg width="256" height="256" viewBox="0 0 256 256" fill="none" xmlns="http://www.w3.org/2000/svg">
<g clip-path="url(#clip0_165_40)">
<path d="M192 120H219.1C220.576 120.003 222.024 119.593 223.279 118.815C224.534 118.037 225.546 116.924 226.2 115.6L244.6 78.8C245.512 76.957 245.688 74.8363 245.094 72.8679C244.5 70.8995 243.179 69.2307 241.4 68.2L192 40" stroke="white" stroke-width="8" stroke-linecap="round" stroke-linejoin="round"/>
<path d="M64 120H36.9C35.4237 120.003 33.9759 119.593 32.721 118.815C31.466 118.037 30.4541 116.924 29.8 115.6L11.4 78.8C10.4884 76.957 10.3118 74.8363 10.9061 72.8679C11.5003 70.8995 12.8209 69.2307 14.6 68.2L64 40" stroke="white" stroke-width="8" stroke-linecap="round" stroke-linejoin="round"/>
<path d="M160 40C160 48.4869 156.629 56.6263 150.627 62.6274C144.626 68.6286 136.487 72 128 72C119.513 72 111.374 68.6286 105.373 62.6274C99.3714 56.6263 96 48.4869 96 40H64V208C64 210.122 64.8429 212.157 66.3431 213.657C67.8434 215.157 69.8783 216 72 216H184C186.122 216 188.157 215.157 189.657 213.657C191.157 212.157 192 210.122 192 208V40H160Z" stroke="white" stroke-width="8" stroke-linecap="round" stroke-linejoin="round"/>
</g>
<defs>
<clipPath id="clip0_165_40">
<rect width="256" height="256" fill="white"/>
</clipPath>
</defs>
</svg>
