<svg width="256" height="256" viewBox="0 0 256 256" fill="none" xmlns="http://www.w3.org/2000/svg">
<g clip-path="url(#clip0_580_95)">
<path d="M224.001 127.4C224.094 140.12 221.647 152.73 216.805 164.493C211.963 176.255 204.822 186.933 195.801 195.9C158.901 232.8 98.5005 233.2 61.1005 196.8C47.3794 183.448 37.9639 166.299 34.0638 147.555C30.1637 128.811 31.9572 109.329 39.2138 91.612C46.4704 73.8952 58.8586 58.7527 74.7868 48.1303C90.715 37.5078 109.455 31.8905 128.601 32.0001C129.798 32.0178 130.977 32.3009 132.053 32.8292C133.128 33.3574 134.073 34.1176 134.819 35.055C135.565 35.9923 136.094 37.0835 136.367 38.2499C136.641 39.4163 136.652 40.6288 136.401 41.8001C135.359 46.4461 135.366 51.266 136.424 55.9085C137.481 60.551 139.561 64.8991 142.512 68.6357C145.463 72.3723 149.211 75.4034 153.482 77.5078C157.753 79.6122 162.44 80.737 167.201 80.8001C169.322 80.8001 171.357 81.643 172.857 83.1433C174.358 84.6435 175.201 86.6784 175.201 88.8001C175.264 93.5611 176.388 98.2479 178.493 102.519C180.597 106.79 183.628 110.538 187.365 113.489C191.102 116.44 195.45 118.52 200.092 119.577C204.735 120.634 209.555 120.642 214.201 119.6C215.372 119.349 216.584 119.36 217.751 119.633C218.917 119.907 220.008 120.436 220.946 121.182C221.883 121.928 222.643 122.873 223.171 123.948C223.7 125.023 223.983 126.202 224.001 127.4Z" stroke="white" stroke-width="8" stroke-linecap="round" stroke-linejoin="round"/>
<path d="M156 180C160.418 180 164 176.418 164 172C164 167.582 160.418 164 156 164C151.582 164 148 167.582 148 172C148 176.418 151.582 180 156 180Z" fill="white"/>
<path d="M92 172C96.4183 172 100 168.418 100 164C100 159.582 96.4183 156 92 156C87.5817 156 84 159.582 84 164C84 168.418 87.5817 172 92 172Z" fill="white"/>
<path d="M84 116C88.4183 116 92 112.418 92 108C92 103.582 88.4183 100 84 100C79.5817 100 76 103.582 76 108C76 112.418 79.5817 116 84 116Z" fill="white"/>
<path d="M136 132C140.418 132 144 128.418 144 124C144 119.582 140.418 116 136 116C131.582 116 128 119.582 128 124C128 128.418 131.582 132 136 132Z" fill="white"/>
</g>
<defs>
<clipPath id="clip0_580_95">
<rect width="256" height="256" fill="white"/>
</clipPath>
</defs>
</svg>
