<svg width="130" height="130" viewBox="0 0 130 130" fill="none" xmlns="http://www.w3.org/2000/svg">
<path d="M64.961 123.295C44.773 123.295 28.35 106.871 28.35 86.6839C28.35 80.2259 30.13 73.8529 33.642 67.7409C33.909 67.2799 34.17 66.8299 34.429 66.3879C36.483 62.8779 37.965 60.3419 37.965 56.5639C37.967 41.6799 50.077 29.5709 64.961 29.5709C74.715 29.5709 83.812 34.9219 88.702 43.5339C90.856 47.3269 91.248 51.1219 91.627 54.7899C91.695 55.4559 91.767 56.1289 91.847 56.8129C92.018 58.2659 92.319 59.6029 92.767 60.9009C93.498 63.0279 94.591 64.9889 96.116 67.4639C99.686 73.2559 101.572 79.9009 101.572 86.6819C101.571 106.871 85.148 123.295 64.961 123.295ZM64.961 35.0369C53.089 35.0369 43.431 44.6949 43.43 56.5659C43.429 61.8239 41.349 65.3819 39.146 69.1489C38.894 69.5789 38.639 70.0159 38.381 70.4649C35.351 75.7369 33.815 81.1939 33.815 86.6849C33.815 103.859 47.787 117.831 64.961 117.831C82.135 117.831 96.107 103.858 96.107 86.6849C96.107 80.9169 94.502 75.2629 91.463 70.3339C89.74 67.5399 88.493 65.2859 87.598 62.6819C87.024 61.0119 86.638 59.3039 86.419 57.4589C86.334 56.7479 86.263 56.0469 86.19 55.3549C85.839 51.9619 85.537 49.0319 83.95 46.2349C80.029 39.3279 72.753 35.0369 64.961 35.0369Z" fill="white"/>
<path d="M65.298 50.681C65.263 50.681 65.228 50.681 65.193 50.681C59.299 50.632 55.069 46.329 54.892 46.145C53.843 45.061 53.871 43.332 54.956 42.282C56.038 41.235 57.762 41.261 58.81 42.337C58.885 42.411 61.718 45.207 65.275 45.217C67.324 45.225 69.382 44.246 71.317 42.314C72.382 41.248 74.115 41.248 75.18 42.314C76.246 43.381 76.246 45.111 75.18 46.178C72.191 49.166 68.867 50.681 65.298 50.681Z" fill="white"/>
<path d="M65.5229 50.5729C64.6139 50.5729 63.7229 50.1169 63.2059 49.2879C59.5609 43.4429 55.1739 29.8419 64.6519 20.1999C65.7089 19.1229 67.4379 19.1089 68.5149 20.1659C69.5909 21.2239 69.6059 22.9539 68.5469 24.0299C59.7339 32.9969 67.5099 45.8589 67.8449 46.4029C68.6359 47.6849 68.2409 49.3679 66.9619 50.1619C66.5149 50.4399 66.0159 50.5729 65.5229 50.5729Z" fill="white"/>
<path d="M52.755 39.347C46.144 39.347 40.354 36.858 36.453 32.339C30.983 26.002 30.111 16.512 34.178 7.57396L34.699 6.42796L35.909 6.07896C38.538 5.32296 41.183 4.93896 43.774 4.93896C50.385 4.93896 56.175 7.42796 60.076 11.947C65.547 18.284 66.419 27.773 62.352 36.713L61.831 37.859L60.621 38.208C57.992 38.963 55.346 39.347 52.755 39.347ZM38.654 11.009C36.051 17.613 36.756 24.327 40.59 28.768C43.437 32.066 47.757 33.883 52.755 33.883C54.434 33.883 56.151 33.68 57.874 33.277C60.478 26.672 59.772 19.959 55.938 15.518C53.091 12.22 48.772 10.403 43.773 10.403C42.095 10.402 40.378 10.606 38.654 11.009Z" fill="white"/>
</svg>
