<svg width="220" height="212" viewBox="0 0 220 212" fill="none" xmlns="http://www.w3.org/2000/svg">
<path d="M164.745 11.5681C159.229 9.74605 153.91 9.06105 148.946 9.06105C136.657 9.15305 126.185 13.1021 119.488 14.3781C121.541 10.6191 125.372 5.69805 126.946 4.23505C127.904 3.23905 127.876 1.65905 126.883 0.700052C125.887 -0.258948 124.303 -0.229948 123.348 0.763052C121.201 3.19205 115.994 8.94705 113.953 14.5431C110.089 12.9051 101.401 5.47905 84.902 5.34605C80.454 5.34605 75.416 5.86905 69.644 7.10805C22.038 17.0731 -0.338995 55.3661 0.00400465 104.83C0.0150047 156.922 36.835 200.402 85.918 210.709H85.921C86.92 210.919 87.91 211.011 88.872 211.011C98.012 210.452 103.971 204.744 107.86 205.251C113.897 205.015 121.825 209.71 131.319 209.966C133.021 209.966 134.785 209.774 136.559 209.295C181.909 197.362 210.184 168.555 217.387 119.834C218.723 111.114 219.365 102.921 219.365 95.2401C219.583 49.382 195.839 21.6071 164.745 11.5681ZM207.501 118.319C200.247 163.839 176.543 187.88 133.959 199.639C133.142 199.858 132.281 199.964 131.319 199.964C125.8 200.221 117.671 195.482 107.86 195.249C98.478 195.755 92.173 201.567 88.872 201.009C88.55 201.009 88.259 200.981 87.968 200.92H87.971C43.453 191.572 9.993 152.096 10.005 104.829C10.347 57.8611 29.111 26.2751 71.743 16.8881C76.916 15.7771 81.243 15.3451 84.902 15.3451C101.271 15.1871 103.867 23.5931 115.638 24.7701C125.864 24.5141 136.478 18.9531 148.946 19.0621C153.003 19.0651 157.194 19.6091 161.61 21.0651C188.979 30.3181 209.144 52.7551 209.363 95.2401C209.363 102.365 208.771 110.055 207.501 118.319Z" fill="white"/>
</svg>
